<svg width="16" height="20" fill="none" xmlns="http://www.w3.org/2000/svg"><path fill-rule="evenodd" clip-rule="evenodd" d="M8 0C10.7956 0 12.8929 2.18417 12.996 5.26154L13 5.5V7H14C15.1046 7 16 7.89543 16 9V18C16 19.1046 15.1046 20 14 20H2C0.89543 20 0 19.1046 0 18V9C0 7.89543 0.89543 7 2 7H3V5.5C3 2.29761 5.13272 0 8 0ZM14 9H2V18H14V9ZM8 11C9.10457 11 10 11.8954 10 13C10 13.7398 9.59828 14.3858 9.00108 14.7318L9 15.2C9 15.6418 8.55228 16 8 16C7.48716 16 7.06449 15.6912 7.00673 15.2933L7 15.2L6.99993 14.7324C6.40217 14.3866 6 13.7403 6 13C6 11.8954 6.89543 11 8 11ZM8 2C6.33153 2 5.08826 3.27741 5.0045 5.28242L5 5.5V7H11V5.5C11 3.37028 9.72806 2 8 2Z" fill="#fff"/></svg>